<?xml version="1.0" encoding="UTF-8"?>
<svg id="Layer_1" data-name="Layer 1" xmlns="http://www.w3.org/2000/svg" viewBox="0 0 392 405">
  <defs>
    <style>
      .cls-1 {
        fill: none;
        stroke: #000;
        stroke-miterlimit: 10;
        stroke-width: 2px;
      }
    </style>
  </defs>
  <path class="cls-1" d="M189.06,6.17l-.04,265.54c2.68,54.55,18.29,104.48,72.03,127.45l-140.53.05c-62.41-4.99-109.59-52.96-113.51-115.49-2.94-46.93-2.99-116.19.01-163.09C10.15,71.69,42.46,27.26,89.53,12.14c31.81-10.21,66.56-4.47,99.54-5.98ZM156.06,135.17c.78-60.29-83.2-77.49-102.72-19.22-23.12,68.99,75.08,107.25,99.72,40.23l-7.86.13c-19.15,47.55-88.15,28.09-88.14-21.14h99ZM64.06,252.17v-17h-7.01s0,106.01,0,106.01h7.01v-68.51c0-3.06,3.77-11.53,5.47-14.53,17.33-30.76,71.53-18.75,71.53,12.53v70.5h9c-6.25-32.59,13.34-88.26-26.74-104.76-21.6-8.9-45.19-3.06-59.26,15.76ZM197.05,6.17c32.71,1.83,68.26-4.26,100,4.51,50.94,14.08,84.86,59.77,88.04,111.96,2.84,46.62,2.82,113.44,0,160.08-2.66,44.09-27.07,84.39-66.99,104.01-22.86,11.23-34.2,13.67-57.42,2.33-42.2-20.61-60.99-59.74-63.66-105.34l.03-277.54ZM338.06,135.17c-2.13-76.6-111.43-71.27-106.03,5.53,3.97,56.44,85.71,70.16,103.03,15.48l-7.31-.04c-20.49,47.45-88.46,28.69-88.68-20.96h99ZM331.06,315.17v25h7v-106h-8c-.49.37,1,1.29,1,1.5v22.5l-14.53-15.97c-38.15-28.46-86.11,1.51-84.52,47.53,1.5,43.26,50.48,68.79,85.05,40.96l13.99-15.51ZM146.56,128.17c2.67-3.52-1.99-12.98-4.11-16.89-22-40.39-78.38-26.56-84.39,16.89h88.5ZM241.01,127.71l89.01-1.02c-5.46-23.94-25.51-42.46-51.2-39.26-18.53,2.31-37.99,21.48-37.81,40.28ZM286.57,335.22c59.85-2.01,56.51-99.58-3.68-96.81-58.67,2.71-56.3,98.82,3.68,96.81Z"/>
</svg>